<svg width="394" height="900" viewBox="0 0 394 900" fill="none" xmlns="http://www.w3.org/2000/svg">
<path d="M203.038 137.846C203.568 138.358 204.386 138.604 205.493 138.585C206.599 138.566 207.539 138.322 208.313 137.853C206.452 127.988 205.213 122.149 204.596 120.336C203.847 118.461 202.757 117.535 201.325 117.559C200.674 117.571 199.896 117.779 198.992 118.185L203.038 137.846ZM184.205 167.468C183.569 168.39 183.258 169.242 183.271 170.023C183.304 171.911 185.088 173.476 188.626 174.718C192.227 175.894 196.569 176.601 201.652 176.84C202.658 186.199 203.66 191.521 204.659 192.807C203.463 195.236 200.087 197.735 194.531 200.304C188.974 202.808 182.681 204.12 175.65 204.24C166.342 204.399 158.334 202.549 151.627 198.692C144.918 194.769 141.51 189.651 141.402 183.336C141.374 181.644 141.511 180.144 141.814 178.837L161.027 85.5268C166.178 82.1182 172.35 79.4084 179.544 77.3975C186.737 75.3866 194.239 74.3146 202.051 74.1814C213.247 73.9906 222.848 75.7152 230.854 79.3553C239.976 83.4973 245.582 89.6201 247.674 97.7237L271.505 189.421C264.885 198.324 253.927 202.906 238.63 203.167C231.209 203.293 224.904 202.066 219.716 199.484C214.528 196.903 211.469 193.146 210.539 188.213L208.187 176.338C212.092 176.206 215.855 175.393 219.476 173.899C223.096 172.405 224.894 170.876 224.867 169.314C224.849 168.273 224.412 167.434 223.554 166.797C221.111 168.597 218.107 169.983 214.542 170.955C210.977 171.928 207.665 172.44 204.606 172.492C195.818 172.642 189.018 170.967 184.205 167.468Z" fill="#5EAAA8" fill-opacity="0.5"/>
<path d="M228.475 214.849C236.287 214.716 243.093 216.716 248.893 220.85C254.693 224.983 257.66 230.956 257.793 238.767L258.719 293.056C259.001 309.59 254.173 322.435 244.237 331.59C234.299 340.68 220.412 345.377 202.576 345.681C184.805 345.984 170.898 341.825 160.854 333.206C150.614 324.59 145.351 311.853 145.063 294.993L143.877 225.375C151.454 219.125 160.287 215.914 170.377 215.742C178.839 215.598 185.582 217.729 190.606 222.136C195.628 226.478 198.217 233.173 198.371 242.222L199.341 299.147C200.066 299.656 200.884 299.902 201.796 299.886C202.772 299.87 203.452 299.63 203.835 299.168C204.281 298.64 204.493 297.692 204.47 296.325L203.544 242.036C203.474 237.935 203.224 234.683 202.792 232.282C202.36 229.88 201.538 227.485 200.326 225.096C208.026 218.453 217.409 215.038 228.475 214.849Z" fill="#5EAAA8" fill-opacity="0.5"/>
<path d="M194.071 448.575C194.305 462.31 190.134 473.548 181.558 482.289C172.472 491.69 159.792 496.529 143.519 496.807C134.21 496.965 125.349 494.707 116.935 490.032C110.493 486.496 105.572 482.38 102.171 477.684C101.453 473.725 101.066 470.118 101.01 466.863C100.829 456.252 103.913 448.061 110.261 442.288C115.39 437.642 121.763 435.255 129.379 435.125C135.173 435.026 140.472 436.466 145.276 439.444C150.148 442.617 153.772 447.048 156.148 452.737C158.231 452.702 159.255 451.61 159.218 449.462C159.199 448.355 158.686 446.899 157.678 445.093C156.736 443.286 155.371 441.486 153.582 439.693C148.879 435.02 143.264 432.186 136.735 431.19L135.777 374.948C138.99 372.484 143.057 370.397 147.976 368.685C152.896 366.973 158.513 366.063 164.827 365.956C171.141 365.848 176.856 366.858 181.971 368.984C189.187 372.117 192.85 376.938 192.961 383.448L194.071 448.575Z" fill="#5EAAA8" fill-opacity="0.5"/>
<path d="M214.053 448.234C214.287 461.969 218.838 473.059 227.708 481.502C237.109 490.588 249.946 494.993 266.22 494.715C275.528 494.557 284.307 491.998 292.557 487.039C298.875 483.285 303.653 479.003 306.891 474.195C307.475 470.213 307.739 466.595 307.683 463.34C307.502 452.729 304.141 444.648 297.6 439.094C292.315 434.626 285.864 432.457 278.248 432.587C272.455 432.686 267.208 434.305 262.509 437.446C257.747 440.783 254.276 445.335 252.095 451.102C250.012 451.137 248.952 450.081 248.916 447.933C248.897 446.826 249.36 445.353 250.306 443.514C251.186 441.676 252.489 439.831 254.216 437.978C258.756 433.147 264.272 430.123 270.763 428.906L269.804 372.664C266.508 370.311 262.373 368.363 257.398 366.82C252.423 365.277 246.778 364.559 240.464 364.667C234.15 364.774 228.473 365.978 223.433 368.278C216.328 371.654 212.831 376.598 212.942 383.107L214.053 448.234Z" fill="#5EAAA8" fill-opacity="0.5"/>
<path d="M342.669 252.072C342.748 256.694 342.136 260.872 340.832 264.605C339.592 268.273 337.606 272.083 334.874 276.037L282.733 276.925C277.203 269.597 274.367 261.701 274.222 253.239C274.143 248.552 274.754 244.309 276.057 240.511C277.358 236.647 279.309 232.707 281.911 228.69L334.051 227.802C336.987 231.919 339.137 235.821 340.502 239.51C341.867 243.198 342.59 247.385 342.669 252.072Z" fill="#5EAAA8" fill-opacity="0.5"/>
<path d="M129.7 255.703C129.779 260.324 129.167 264.502 127.863 268.236C126.623 271.903 124.637 275.714 121.904 279.667L69.7636 280.556C64.2342 273.227 61.3974 265.332 61.2532 256.869C61.1733 252.183 61.7847 247.94 63.0873 244.141C64.3888 240.277 66.3402 236.337 68.9414 232.321L121.082 231.432C124.017 235.549 126.168 239.452 127.533 243.14C128.898 246.828 129.62 251.016 129.7 255.703Z" fill="#5EAAA8" fill-opacity="0.5"/>
<path d="M342.225 211.787C342.146 211.93 342.113 212.041 342.124 212.122C342.157 212.196 342.179 212.292 342.189 212.409C342.852 212.385 343.626 212.617 344.509 213.105C345.663 213.743 346.433 214.688 346.819 215.943C347.218 217.205 347.068 218.47 346.368 219.738C345.494 221.319 344.31 222.283 342.817 222.63C341.332 222.962 339.82 222.703 338.282 221.853C336.472 220.854 335.379 219.45 335.002 217.643C334.638 215.843 334.98 213.996 336.027 212.101C337.326 209.75 338.998 208.238 341.044 207.564C342.86 206.969 344.623 207.143 346.333 208.088C347.515 208.741 348.322 209.503 348.752 210.373C349.191 211.229 349.162 212.105 348.666 213.003C348.296 213.672 347.83 214.112 347.268 214.322C346.752 213.405 346.081 212.718 345.254 212.261C344.442 211.813 343.772 211.545 343.244 211.458C342.73 211.378 342.39 211.488 342.225 211.787Z" fill="#5EAAA8" fill-opacity="0.5"/>
<path d="M56.4431 214.542C56.5443 214.67 56.5929 214.769 56.5888 214.84C56.5599 214.905 56.5461 214.989 56.5474 215.093C55.8158 215.06 54.9902 215.251 54.0706 215.666C52.8692 216.209 52.1216 217.032 51.8279 218.134C51.5193 219.244 51.8153 220.366 52.7158 221.5C53.8388 222.915 55.2382 223.79 56.9138 224.124C58.5794 224.446 60.2131 224.244 61.8151 223.521C63.6988 222.67 64.7544 221.448 64.9819 219.856C65.1946 218.27 64.6281 216.629 63.2825 214.934C61.6131 212.83 59.6202 211.462 57.3039 210.828C55.2472 210.268 53.3289 210.389 51.549 211.194C50.3179 211.75 49.5109 212.409 49.1281 213.171C48.7352 213.92 48.8575 214.696 49.4949 215.499C49.9704 216.098 50.5278 216.496 51.1671 216.692C51.6388 215.89 52.3049 215.295 53.1652 214.906C54.0106 214.524 54.7189 214.299 55.29 214.232C55.8463 214.171 56.2306 214.275 56.4431 214.542Z" fill="#5EAAA8" fill-opacity="0.5"/>
<path d="M355.53 229.563C355.451 229.706 355.417 229.817 355.428 229.898C355.462 229.972 355.483 230.068 355.493 230.185C356.157 230.161 356.931 230.393 357.814 230.881C358.968 231.518 359.738 232.464 360.123 233.719C360.523 234.981 360.373 236.246 359.672 237.514C358.799 239.095 357.615 240.059 356.122 240.406C354.637 240.738 353.125 240.479 351.586 239.629C349.777 238.63 348.684 237.226 348.306 235.418C347.943 233.619 348.285 231.771 349.332 229.877C350.63 227.526 352.303 226.014 354.348 225.34C356.165 224.745 357.928 224.919 359.637 225.864C360.82 226.517 361.626 227.279 362.057 228.149C362.495 229.004 362.466 229.881 361.971 230.779C361.601 231.448 361.135 231.888 360.572 232.098C360.056 231.181 359.385 230.494 358.559 230.037C357.747 229.589 357.077 229.321 356.549 229.234C356.035 229.154 355.695 229.264 355.53 229.563Z" fill="#5EAAA8" fill-opacity="0.5"/>
<path d="M39.4285 232.835C39.5296 232.962 39.5782 233.062 39.5742 233.133C39.5452 233.198 39.5314 233.282 39.5328 233.385C38.8012 233.352 37.9756 233.543 37.0559 233.959C35.8545 234.501 35.1069 235.324 34.8132 236.427C34.5047 237.536 34.8007 238.658 35.7011 239.793C36.8241 241.208 38.2235 242.083 39.8992 242.417C41.5647 242.738 43.1985 242.537 44.8004 241.813C46.6841 240.962 47.7398 239.741 47.9673 238.148C48.1799 236.563 47.6135 234.922 46.2678 233.226C44.5984 231.123 42.6056 229.754 40.2893 229.12C38.2326 228.56 36.3142 228.682 34.5343 229.486C33.3032 230.042 32.4963 230.701 32.1135 231.463C31.7206 232.212 31.8428 232.988 32.4802 233.792C32.9557 234.391 33.5131 234.788 34.1524 234.985C34.6242 234.183 35.2902 233.587 36.1505 233.199C36.996 232.817 37.7043 232.592 38.2754 232.524C38.8316 232.464 39.216 232.567 39.4285 232.835Z" fill="#5EAAA8" fill-opacity="0.5"/>
<path d="M356.007 257.559C355.928 257.701 355.895 257.813 355.906 257.893C355.939 257.968 355.961 258.063 355.971 258.18C356.635 258.156 357.408 258.389 358.292 258.877C359.445 259.514 360.215 260.46 360.601 261.714C361.001 262.976 360.85 264.242 360.15 265.509C359.276 267.091 358.093 268.055 356.6 268.401C355.114 268.734 353.602 268.475 352.064 267.625C350.255 266.625 349.161 265.222 348.784 263.414C348.421 261.614 348.763 259.767 349.809 257.872C351.108 255.522 352.78 254.009 354.826 253.336C356.642 252.74 358.405 252.915 360.115 253.859C361.297 254.513 362.104 255.274 362.534 256.144C362.973 257 362.944 257.877 362.448 258.774C362.078 259.444 361.612 259.884 361.05 260.094C360.534 259.176 359.863 258.489 359.036 258.033C358.224 257.584 357.554 257.316 357.026 257.229C356.512 257.15 356.172 257.26 356.007 257.559Z" fill="#5EAAA8" fill-opacity="0.5"/>
<path d="M39.9055 260.831C40.0067 260.958 40.0553 261.058 40.0512 261.129C40.0223 261.194 40.0085 261.278 40.0098 261.381C39.2782 261.348 38.4526 261.539 37.533 261.955C36.3316 262.498 35.584 263.32 35.2903 264.423C34.9817 265.532 35.2777 266.654 36.1782 267.789C37.3012 269.204 38.7006 270.079 40.3762 270.413C42.0418 270.734 43.6755 270.533 45.2775 269.809C47.1612 268.958 48.2168 267.737 48.4443 266.144C48.657 264.559 48.0905 262.918 46.7449 261.222C45.0755 259.119 43.0826 257.75 40.7663 257.117C38.7096 256.556 36.7913 256.678 35.0114 257.482C33.7803 258.038 32.9733 258.697 32.5905 259.459C32.1976 260.208 32.3199 260.984 32.9573 261.788C33.4328 262.387 33.9902 262.785 34.6295 262.981C35.1013 262.179 35.7673 261.583 36.6276 261.195C37.473 260.813 38.1813 260.588 38.7524 260.52C39.3087 260.46 39.6931 260.563 39.9055 260.831Z" fill="#5EAAA8" fill-opacity="0.5"/>
<path d="M347.684 281.972C347.577 282.095 347.52 282.196 347.514 282.277C347.531 282.357 347.531 282.455 347.516 282.571C348.169 282.691 348.875 283.083 349.633 283.749C350.624 284.619 351.173 285.708 351.281 287.016C351.401 288.334 350.983 289.538 350.027 290.626C348.835 291.983 347.472 292.671 345.94 292.69C344.418 292.696 342.996 292.12 341.676 290.96C340.123 289.596 339.355 287.99 339.374 286.144C339.405 284.308 340.135 282.577 341.563 280.95C343.336 278.933 345.293 277.814 347.435 277.594C349.337 277.402 351.022 277.95 352.49 279.239C353.505 280.13 354.129 281.047 354.363 281.989C354.608 282.919 354.392 283.769 353.715 284.54C353.211 285.114 352.661 285.444 352.067 285.529C351.759 284.522 351.251 283.708 350.542 283.085C349.845 282.472 349.248 282.067 348.75 281.869C348.265 281.681 347.91 281.715 347.684 281.972Z" fill="#5EAAA8" fill-opacity="0.5"/>
<path d="M50.058 284.25C50.1852 284.352 50.2544 284.437 50.2654 284.506C50.2505 284.574 50.2546 284.657 50.2778 284.755C49.5455 284.871 48.7674 285.221 47.9435 285.803C46.8672 286.565 46.3 287.502 46.242 288.615C46.1706 289.738 46.7013 290.751 47.8339 291.654C49.2465 292.78 50.8188 293.334 52.5507 293.316C54.2698 293.287 55.847 292.765 57.2821 291.75C58.9697 290.556 59.7579 289.175 59.6467 287.607C59.5223 286.048 58.6138 284.594 56.9212 283.245C54.8214 281.57 52.5563 280.664 50.126 280.526C47.9685 280.405 46.0925 280.909 44.4979 282.037C43.395 282.817 42.7344 283.609 42.516 284.415C42.2848 285.21 42.5701 285.928 43.3719 286.567C43.97 287.044 44.6067 287.312 45.2819 287.37C45.5801 286.508 46.1145 285.805 46.8852 285.259C47.6426 284.724 48.2973 284.366 48.8492 284.186C49.3878 284.016 49.7907 284.037 50.058 284.25Z" fill="#5EAAA8" fill-opacity="0.5"/>
</svg>
